<?xml version="1.0" standalone="no"?>
<!DOCTYPE svg PUBLIC "-//W3C//DTD SVG 20010904//EN"
 "http://www.w3.org/TR/2001/REC-SVG-20010904/DTD/svg10.dtd">
<svg version="1.0" xmlns="http://www.w3.org/2000/svg"
 width="70.000000pt" height="70.000000pt" viewBox="0 0 70.000000 70.000000"
 preserveAspectRatio="xMidYMid meet">
<metadata>
Created by potrace 1.11, written by Peter Selinger 2001-2013
</metadata>
<g transform="translate(0.000000,70.000000) scale(0.100000,-0.100000)"
fill="#000000" stroke="none">
<path d="M435 675 c-77 -13 -192 -31 -255 -40 -166 -25 -161 -22 -154 -92 5
-47 3 -61 -10 -72 -22 -19 -20 -41 8 -70 21 -22 27 -46 41 -146 24 -174 20
-169 109 -160 71 6 73 6 90 -19 29 -45 88 -77 131 -73 35 4 55 19 54 42 0 13
-59 82 -59 70 0 -5 12 -23 27 -39 19 -21 15 -19 -12 6 -45 41 -70 52 -39 16
43 -49 46 -61 6 -23 -52 49 -55 35 -4 -19 35 -37 35 -38 6 -18 -17 12 -37 28
-44 37 -7 8 -17 15 -23 15 -6 0 7 -19 28 -42 37 -38 38 -40 8 -20 -35 25 -83
78 -83 94 0 5 -12 7 -27 4 -80 -16 -103 -18 -103 -8 0 11 75 32 114 32 14 0
26 5 26 11 0 6 -37 50 -83 98 -172 180 -181 191 -163 209 14 15 18 14 42 -9
14 -13 54 -60 87 -104 33 -44 80 -103 104 -131 23 -28 40 -53 37 -56 -7 -8 65
1 234 27 79 12 145 18 148 13 7 -11 -2 -13 -161 -38 -77 -12 -141 -23 -143
-25 -2 -2 -1 -8 2 -14 4 -6 17 -7 34 -1 15 4 79 16 143 25 63 9 121 20 128 24
27 17 22 96 -18 298 -22 112 -42 207 -46 213 -8 13 -10 12 -180 -15z m-78 -31
c-3 -3 -12 -4 -19 -1 -8 3 -5 6 6 6 11 1 17 -2 13 -5z m-180 -30 c-3 -3 -12
-4 -19 -1 -8 3 -5 6 6 6 11 1 17 -2 13 -5z m271 -61 c69 -8 97 -72 47 -111
-23 -18 -25 -26 -23 -78 l3 -58 -65 -12 c-71 -13 -79 -9 -80 36 0 43 -12 70
-30 70 -28 0 -52 35 -48 72 2 25 10 37 33 48 17 8 41 23 55 33 15 11 33 15 45
11 11 -3 39 -9 63 -11z m-328 -404 c0 -5 -4 -9 -10 -9 -5 0 -10 7 -10 16 0 8
5 12 10 9 6 -3 10 -10 10 -16z"/>
<path d="M345 533 c-10 -9 -15 -26 -12 -40 5 -28 -9 -31 -18 -3 -3 11 -13 20
-21 20 -21 0 -37 -47 -24 -71 10 -18 16 -21 50 -23 9 -1 16 -13 18 -33 3 -33
16 -43 25 -20 4 10 6 10 6 0 1 -20 31 -15 31 5 0 15 2 15 11 2 8 -12 12 -12
16 -2 4 10 8 10 20 0 14 -11 15 -8 9 27 -6 35 -4 41 16 50 32 14 37 69 8 85
-25 14 -40 6 -41 -23 0 -15 -2 -17 -6 -7 -18 47 -59 63 -88 33z m145 -53 c0
-11 -4 -20 -9 -20 -5 0 -7 9 -4 20 3 11 7 20 9 20 2 0 4 -9 4 -20z m-186 -43
c7 -6 6 -7 -4 -4 -8 2 -16 14 -17 28 -1 19 -1 20 4 4 3 -11 10 -24 17 -28z
m111 14 c-8 -14 -62 -14 -70 -1 -4 6 5 7 23 4 18 -4 32 -1 37 6 4 6 9 9 12 6
3 -2 2 -9 -2 -15z"/>
<path d="M440 344 c-8 -2 -32 -5 -52 -9 -25 -4 -38 -11 -38 -21 0 -12 7 -14
30 -10 17 3 44 9 60 12 17 3 30 9 30 14 0 12 -12 17 -30 14z"/>
<path d="M340 146 c0 -9 5 -16 10 -16 6 0 10 4 10 9 0 6 -4 13 -10 16 -5 3
-10 -1 -10 -9z"/>
</g>
</svg>
